<?xml version="1.0" encoding="utf-8"?><!-- Uploaded to: SVG Repo, www.svgrepo.com, Generator: SVG Repo Mixer Tools -->
<svg width="800px" height="800px" viewBox="0 0 24 24" fill="none" xmlns="http://www.w3.org/2000/svg">
<path fill-rule="evenodd" clip-rule="evenodd" d="M9.57558 6.97671C9.57558 5.22674 10.9942 3.80811 12.7442 3.80811C14.3234 3.80811 15.6328 4.96339 15.8733 6.4749C16.2971 5.76886 17.0701 5.29639 17.9535 5.29639C19.2925 5.29639 20.3779 6.38184 20.3779 7.72081C20.3779 8.39147 20.1056 8.99853 19.6655 9.43745C20.2897 9.60203 20.75 10.1704 20.75 10.8464V14.6108C20.75 16.4601 19.2509 17.9592 17.4017 17.9592H17.3895C17.1343 17.9592 16.8853 17.9306 16.6457 17.8762C15.7933 19.2315 14.299 20.1494 12.5765 20.1915L12.5582 20.192L12.5398 20.1915C10.1067 20.132 8.12662 18.3252 7.77092 16H4.66654C4.29842 16 4 15.7016 4 15.3335V8.66654C4 8.29842 4.29843 8 4.66654 8H9.74445C9.63498 7.67899 9.57558 7.33479 9.57558 6.97671ZM15.6076 8.33522C15.7125 8.73661 15.9176 9.09747 16.1946 9.3894H14.7983C15.1371 9.10065 15.4144 8.74177 15.6076 8.33522ZM15.6016 16.6566C15.0764 17.8255 13.9195 18.651 12.5582 18.6915C10.9517 18.6438 9.63215 17.5028 9.29661 16H11.3335C11.7016 16 12 15.7016 12 15.3335V10.8894H15.9012V15.1573L15.9014 15.166C15.9138 15.6983 15.8052 16.2034 15.6016 16.6566ZM17.4012 10.8894H19.25V14.6108C19.25 15.6316 18.4225 16.4592 17.4017 16.4592H17.3894C17.3437 16.4592 17.2984 16.4575 17.2536 16.4543C17.3592 16.034 17.4109 15.5932 17.4012 15.1402V10.8894ZM11.0756 6.97671C11.0756 6.05517 11.8226 5.30811 12.7442 5.30811C13.6657 5.30811 14.4128 6.05517 14.4128 6.97671C14.4128 7.89826 13.6657 8.64532 12.7442 8.64532C12.4627 8.64532 12.1975 8.57562 11.9649 8.45254C11.8859 8.21935 11.6813 8.04407 11.4317 8.00719C11.2086 7.72347 11.0756 7.36563 11.0756 6.97671ZM17.0291 7.72081C17.0291 7.21026 17.443 6.79639 17.9535 6.79639C18.464 6.79639 18.8779 7.21026 18.8779 7.72081C18.8779 8.23135 18.464 8.64522 17.9535 8.64522C17.443 8.64522 17.0291 8.23135 17.0291 7.72081ZM8.43124 10.5033H9.79497V9.78296H6.20502V10.5033H7.56241V14.2169H8.43124V10.5033Z" fill="#1F2328"/>
</svg>